<svg xmlns="http://www.w3.org/2000/svg" xml:space="preserve" class="logo" viewBox="-9.7 -9.2 336 679"><path fill="#E84D4D" d="M184.8 220.9h-56C74.2 221.7 0 259.8 0 352.5c0 80 60.5 219.8 90.6 273.4a32 32 0 0 0 17 12.3v1.8c0 7 5.7 12.6 12.7 12.6h73c7 0 12.7-5.7 12.7-12.6v-1.8c7-2.3 13-6.2 17-12.3 30.2-53.6 90.7-193.3 90.7-273.4 0-92.7-74.2-130.8-128.9-131.6z"/><circle fill="#FBB" cx="156.8" cy="360.1" r="97.7"/><path fill="#9B2D2D" d="M207.3 144.7H191c5 0 9-4.8 9-10.6s-4-10.7-9-10.7h-68.5c-5 0-9.1 4.8-9.1 10.7s4 10.6 9 10.6h-16c-8.8 0-15.9 7-15.9 15.7v48.1c0 8.7 7.1 15.8 15.8 15.8h100.9c8.7 0 15.7-7 15.7-15.8v-48c0-8.8-7-15.8-15.7-15.8z"/><path fill="#FBB" d="M226.2 0a341.9 341.9 0 0 1-69.4 6.6c-26 0-50-2.5-69.4-6.6H76.6v15.5h8.7v108h143.1v-108h8.7V0h-10.9zm-69.4 94.5a9.7 9.7 0 1 1 0-19.4 9.7 9.7 0 0 1 0 19.4z"/></svg>
