<?xml version="1.0" encoding="utf-8"?>
<!-- Generator: Adobe Illustrator 16.0.0, SVG Export Plug-In . SVG Version: 6.00 Build 0)  -->
<!DOCTYPE svg PUBLIC "-//W3C//DTD SVG 1.1//EN" "http://www.w3.org/Graphics/SVG/1.1/DTD/svg11.dtd">
<svg version="1.1" id="Layer_1" xmlns="http://www.w3.org/2000/svg" xmlns:xlink="http://www.w3.org/1999/xlink" x="0px" y="0px"
	 width="336px" height="679px" viewBox="-9.663 -9.222 336 679" enable-background="new -9.663 -9.222 336 679"
	 xml:space="preserve">
<g id="blueprint" display="none">
	<path display="inline" fill="none" stroke="#000000" stroke-linecap="round" stroke-linejoin="round" stroke-miterlimit="10" d="
		M223.028,208.516c0,8.704-7.057,15.76-15.76,15.76H106.406c-8.703,0-15.76-7.056-15.76-15.76v-48.067
		c0-8.703,7.057-15.76,15.76-15.76h100.863c8.703,0,15.76,7.057,15.76,15.76V208.516L223.028,208.516z"/>
	<path display="inline" fill="none" stroke="#000000" stroke-linecap="round" stroke-linejoin="round" stroke-miterlimit="10" d="
		M200.176,134.058c0,5.873-4.054,10.631-9.055,10.631h-68.567c-5.002,0-9.056-4.759-9.056-10.631l0,0
		c0-5.873,4.054-10.632,9.056-10.632h68.567C196.122,123.426,200.176,128.185,200.176,134.058L200.176,134.058z"/>
	
		<rect x="85.261" y="15.489" display="inline" fill="none" stroke="#000000" stroke-linecap="round" stroke-linejoin="round" stroke-miterlimit="10" width="143.151" height="107.937"/>
	
		<rect x="76.593" display="inline" fill="none" stroke="#000000" stroke-linecap="round" stroke-linejoin="round" stroke-miterlimit="10" width="160.487" height="15.489"/>
	<path display="inline" fill="none" stroke="#000000" stroke-linecap="round" stroke-linejoin="round" stroke-miterlimit="10" d="
		M213.283,639.949c0,6.963-5.646,12.606-12.608,12.606H120.3c-6.963,0-12.607-5.646-12.607-12.606v-5.518
		c0-6.963,5.645-12.605,12.607-12.605h80.375c6.963,0,12.608,5.645,12.608,12.605V639.949z"/>
	
		<ellipse display="inline" fill="none" stroke="#000000" stroke-linecap="round" stroke-linejoin="round" stroke-miterlimit="10" cx="156.836" cy="-26.765" rx="116.463" ry="33.333"/>
	
		<circle display="inline" fill="none" stroke="#000000" stroke-linecap="round" stroke-linejoin="round" stroke-miterlimit="10" cx="156.836" cy="84.816" r="9.718"/>
	
		<circle display="inline" fill="none" stroke="#000000" stroke-linecap="round" stroke-linejoin="round" stroke-miterlimit="10" cx="156.835" cy="360.086" r="97.71"/>
	
		<rect x="156.837" y="-161.56" fill="none" stroke="#000000" stroke-linecap="round" stroke-linejoin="round" stroke-miterlimit="10" width="310.702" height="914.063"/>
	<path display="inline" fill="#E84D4D" d="M235.871,423.126l-79.034-202.224h-24.625C77.301,220.11,0,257.839,0,352.479
		C0,432.569,60.467,572.317,90.646,625.9c7.684,11.623,22.304,15.155,37.316,15.222v0.002h28.875L235.871,423.126z"/>
</g>
<g id="Colors" display="none">
	<rect x="437.667" y="29.529" display="inline" fill="#FFBBBB" width="96.005" height="96.005"/>
	<rect x="437.667" y="158.434" display="inline" fill="#9B2D2D" width="96.005" height="96.005"/>
	<rect x="437.667" y="287.338" display="inline" fill="#E84D4D" width="96.005" height="96.004"/>
</g>
<g id="_x31__ink" display="none">
	<path id="compound" display="inline" fill="#E84D4D" d="M210.657,223.89c7.07-1.555,12.369-7.837,12.369-15.374v-48.067
		c0-8.703-7.058-15.76-15.76-15.76H191.12c5.002,0,9.055-4.759,9.055-10.631s-4.053-10.632-9.055-10.632h37.292V15.489h8.667V0
		h-10.83c-19.387,4.125-43.4,6.567-69.414,6.567c-26.011,0-50.027-2.443-69.412-6.567h-10.83v15.489h8.668v107.937h37.292
		c-5.002,0-9.056,4.759-9.056,10.632s4.054,10.631,9.056,10.631h-16.148c-8.703,0-15.76,7.057-15.76,15.76v48.067
		c0,7.537,5.299,13.819,12.369,15.374C53.438,234.461,0,273.79,0,352.479C0,432.569,60.467,572.317,90.646,625.9
		c4.06,6.14,10.079,9.982,17.047,12.292v1.757c0,6.963,5.645,12.606,12.607,12.606h36.535h0.002h36.535
		c6.963,0,12.607-5.646,12.607-12.606v-1.757c6.967-2.31,12.985-6.152,17.047-12.292c30.178-53.583,90.646-193.331,90.646-273.421
		C313.672,273.79,260.233,234.461,210.657,223.89z M156.835,75.099c5.369,0,9.719,4.351,9.719,9.718
		c0,5.368-4.351,9.719-9.719,9.719c-5.366,0-9.717-4.351-9.717-9.719C147.118,79.449,151.469,75.099,156.835,75.099z
		 M156.835,457.796c-53.964,0-97.71-43.745-97.71-97.71c0-53.964,43.746-97.711,97.71-97.711c53.965,0,97.711,43.747,97.711,97.711
		C254.546,414.051,210.8,457.796,156.835,457.796z"/>
</g>
<g id="_x32__ink" display="none">
	<path display="inline" fill="#E84D4D" d="M184.818,220.903L184.818,220.903l-0.037-0.001h-55.889h-0.059v0.001
		C74.188,221.671,0,259.764,0,352.479c0,80.091,60.467,219.839,90.646,273.423c4.06,6.14,10.079,9.982,17.047,12.292v1.757
		c0,6.961,5.644,12.606,12.607,12.606h73.074c6.961,0,12.607-5.644,12.607-12.606v-1.757c6.968-2.31,12.985-6.152,17.047-12.292
		c30.178-53.583,90.646-193.331,90.646-273.421C313.674,259.752,239.467,221.661,184.818,220.903z"/>
	<circle display="inline" fill="#FFBBBB" cx="156.835" cy="360.086" r="97.71"/>
	<path display="inline" fill="#FFBBBB" d="M226.249,0c-19.387,4.125-43.4,6.567-69.414,6.567c-26.011,0-50.027-2.443-69.412-6.567
		h-10.83v15.489h8.668v107.937h37.293c-5.002,0-9.056,4.759-9.056,10.632s4.054,10.631,9.056,10.631h-16.148
		c-8.703,0-15.76,7.057-15.76,15.76v48.067c0,8.704,7.057,15.76,15.76,15.76h100.863c8.703,0,15.76-7.056,15.76-15.76v-48.067
		c0-8.703-7.057-15.76-15.76-15.76h-16.146c5.001,0,9.055-4.759,9.055-10.631s-4.054-10.632-9.055-10.632h37.291V15.489h8.668V0
		H226.249z M156.835,75.099c5.369,0,9.719,4.351,9.719,9.718c0,5.368-4.35,9.719-9.719,9.719c-5.366,0-9.717-4.351-9.717-9.719
		C147.118,79.45,151.469,75.099,156.835,75.099z"/>
</g>
<g id="_x33__ink">
	<path fill="#E84D4D" d="M184.818,220.903L184.818,220.903l-0.037-0.001h-55.889h-0.059v0.001C74.188,221.671,0,259.764,0,352.479
		c0,80.091,60.467,219.839,90.646,273.423c4.06,6.14,10.079,9.982,17.047,12.292v1.757c0,6.961,5.644,12.606,12.607,12.606h73.074
		c6.961,0,12.607-5.644,12.607-12.606v-1.757c6.968-2.31,12.985-6.152,17.047-12.292c30.178-53.583,90.646-193.331,90.646-273.421
		C313.674,259.752,239.467,221.661,184.818,220.903z"/>
	<circle fill="#FFBBBB" cx="156.835" cy="360.086" r="97.71"/>
	<path fill="#9B2D2D" d="M207.269,144.689h-16.146c5.001,0,9.055-4.759,9.055-10.631s-4.054-10.632-9.055-10.632h-68.567
		c-5.002,0-9.056,4.759-9.056,10.632s4.054,10.631,9.056,10.631h-16.148c-8.703,0-15.76,7.057-15.76,15.76v48.067
		c0,8.704,7.057,15.76,15.76,15.76h100.863c8.703,0,15.76-7.056,15.76-15.76v-48.067
		C223.028,151.746,215.972,144.689,207.269,144.689z"/>
	<path fill="#FFBBBB" d="M226.249,0c-19.387,4.125-43.4,6.567-69.414,6.567c-26.011,0-50.027-2.443-69.412-6.567h-10.83v15.489
		h8.668v107.937h143.151V15.489h8.668V0H226.249z M156.835,94.536c-5.366,0-9.717-4.351-9.717-9.719
		c0-5.367,4.351-9.718,9.717-9.718c5.369,0,9.719,4.351,9.719,9.718C166.554,90.185,162.204,94.536,156.835,94.536z"/>
</g>
</svg>
