<?xml version="1.0" encoding="utf-8"?>
<!-- Generator: Adobe Illustrator 25.1.0, SVG Export Plug-In . SVG Version: 6.00 Build 0)  -->
<svg version="1.1" id="Layer_1" xmlns="http://www.w3.org/2000/svg" xmlns:xlink="http://www.w3.org/1999/xlink" x="0px" y="0px"
	 viewBox="0 0 1000 1000" style="enable-background:new 0 0 1000 1000;" xml:space="preserve">
<style type="text/css">
	.st0{fill:#F52920;}
	.st1{fill:#130D2B;}
</style>
<g>
	<g>
		<path class="st0" d="M403.83,737.57c-8.37,8.37-18.14,11.06-30.59,11.06c-17.84,0-29-5.38-31.49-22.12l-3.09-20.33
			c-2.39-16.74-5.88-29-16.24-29h-9.27v46.94c0,14.85,2.29,16.94,14.55,17.54v4.09c-7.97-0.4-21.43-0.6-34.08-0.6
			c-14.75,0-28.6,0.2-36.37,0.6v-4.09c12.46-0.6,14.55-2.69,14.55-17.54V622.86c0-14.85-2.29-16.94-14.55-17.54v-4.09
			c7.77,0.4,22.12,0.6,35.18,0.6c13.65,0,27.5-0.4,32.79-0.4c41.46,0,61.49,11.46,61.49,35.48c0,17.94-10.96,35.78-49.93,39.56
			c27.9,1.59,41.46,9.97,44.64,26.61l4.28,21.23c1.99,10.17,4.48,13.25,9.17,13.25c2.59,0,4.48-0.8,6.28-2.69L403.83,737.57z
			 M313.15,622.86v50.23h5.58c20.83,0,25.11-15.15,25.11-33.88c0-21.42-5.18-33.88-19.63-33.88
			C315.04,605.32,313.15,608.81,313.15,622.86z"/>
		<path class="st0" d="M534.88,745.74c-13.85-0.6-33.09-0.6-46.74-0.6c-14.65,0-47.73,0-71.45,0.6v-4.09
			c12.46-0.6,14.55-2.69,14.55-17.54V622.86c0-14.85-2.29-16.94-14.55-17.54v-4.09c23.72,0.6,56.8,0.6,71.45,0.6
			c12.46,0,30,0,42.65-0.6c-1,13.65-1.4,27.5-1.4,34.28c0,5.68,0.2,11.26,0.6,14.75h-4.68c-5.08-33.88-20.83-44.35-37.57-44.35
			h-2.69c-10.56,0-12.46,1.69-12.46,12.86V671h2.09c15.35,0,25.31-15.05,27.8-26.91h4.68c-0.6,8.97-0.8,15.05-0.8,19.83
			c0,3.49,0.1,6.28,0.1,9.17c0,6.68,0.3,13.45,1.3,29h-4.68c-2.49-15.15-13.05-27.01-28.4-27.01h-2.09v53.12
			c0,11.26,1.89,12.86,12.46,12.86h6.78c13.45,0,30.99-11.46,37.57-48.33h4.68c-0.4,4.88-0.6,11.36-0.6,18.73
			C533.48,718.23,533.48,732.28,534.88,745.74z"/>
		<path class="st0" d="M713.85,671.89c0,44.45-31.79,73.84-86.1,73.84c-6.58,0-21.23-0.6-30.59-0.6c-13.75,0-27.8,0.2-35.58,0.6
			v-4.09c12.46-0.6,14.55-2.69,14.55-17.54V622.86c0-14.85-2.29-16.94-14.55-17.54v-4.09c6.38,0.3,17.04,0.7,27.9,0.7
			c2.39,0,4.88-0.1,7.27-0.1c9.97-0.2,24.42-0.6,32.79-0.6C686.75,601.24,713.85,626.35,713.85,671.89z M617.49,622.46v102.05
			c0,14.25,2.69,17.54,15.35,17.54c27.8,0,38.17-24.91,38.17-69.36c0-45.74-11.66-67.76-38.37-67.76
			C620.18,604.93,617.49,608.41,617.49,622.46z"/>
	</g>
	<g>
		<path class="st1" d="M304.7,809.92h-6.25v11.02c0,1.52-1.27,2.79-2.84,2.79c-1.52,0-2.79-1.27-2.79-2.79v-29.96
			c0-1.57,1.27-2.79,2.79-2.79h0.05h9.04c6.04,0,10.92,4.88,10.92,10.92C315.62,805.04,310.75,809.92,304.7,809.92z M298.46,804.28
			h6.25c2.95,0,5.23-2.34,5.28-5.18c-0.05-2.95-2.34-5.28-5.28-5.28h-6.25V804.28z"/>
		<path class="st1" d="M347.82,820.94v-29.96c0-1.57,1.22-2.79,2.79-2.79h0.05c0,0,0,0,0.1,0h16.45c1.47,0,2.79,1.22,2.79,2.79
			c0,1.57-1.32,2.84-2.79,2.84h-13.76v9.29h11.83c1.52,0,2.79,1.32,2.79,2.79c0,1.57-1.27,2.84-2.79,2.84h-11.83v9.34h13.76
			c1.47,0,2.79,1.27,2.79,2.84c0,1.52-1.32,2.79-2.79,2.79h-16.45c-0.1,0-0.1-0.05-0.1-0.05l-0.05,0.05
			C349.04,823.73,347.82,822.46,347.82,820.94z"/>
		<path class="st1" d="M427.85,819.52c0.51,1.47-0.31,3.05-1.78,3.56c-0.2,0.05-0.61,0.15-1.12,0.15c0,0,0,0-0.05,0
			c-0.51,0-1.27-0.1-1.98-0.56c-0.66-0.41-1.22-1.07-1.63-1.78c-0.71-1.47-1.07-3.3-1.07-6.09c-0.05-0.97-0.25-1.63-0.61-2.18
			c-0.3-0.56-0.91-1.07-1.52-1.47c-1.07-0.71-2.39-1.12-2.84-1.22h-5.99v11.02c0,1.52-1.27,2.79-2.84,2.79
			c-1.57,0-2.79-1.27-2.79-2.79v-29.96c0-1.57,1.22-2.79,2.79-2.79c0,0,0,0,0.05,0h9.04c6.04,0,10.87,4.88,10.87,10.92
			c0,3.35-1.52,6.3-3.96,8.33c0.66,0.51,1.27,1.12,1.78,1.88c1.02,1.47,1.68,3.35,1.68,5.48c-0.05,1.52,0.1,2.49,0.2,3
			C426.88,818.04,427.55,818.65,427.85,819.52z M420.74,799.1c0-2.95-2.34-5.28-5.23-5.28h-6.25v10.46h6.25
			C418.4,804.28,420.74,801.95,420.74,799.1z"/>
		<path class="st1" d="M461.47,820.94v-29.96c0-1.52,1.22-2.79,2.79-2.79h0.05c0,0,0,0,0.1,0h16.45c1.47,0,2.79,1.27,2.79,2.79
			c0,1.57-1.32,2.84-2.79,2.84H467.1v9.29h11.83c1.52,0,2.79,1.32,2.79,2.79c0,1.57-1.27,2.84-2.79,2.84H467.1v12.19
			c0,1.52-1.27,2.79-2.84,2.79C462.69,823.73,461.47,822.46,461.47,820.94z"/>
		<path class="st1" d="M532.31,823.73c-8.18,0-14.68-6.6-14.68-14.68v-18.08c0-1.57,1.22-2.79,2.79-2.79c1.52,0,2.84,1.22,2.84,2.79
			v18.08c0,4.98,4.06,9.04,9.04,9.04c5.03,0,9.04-4.06,9.04-9.04v-18.08c0-1.57,1.27-2.79,2.84-2.79c1.57,0,2.79,1.22,2.79,2.79
			v18.08C546.98,817.13,540.43,823.73,532.31,823.73z"/>
		<path class="st1" d="M612.34,790.98v29.96c0,1.52-1.32,2.79-2.84,2.79c-1.57,0-2.79-1.27-2.79-2.79v-21.38l-7.31,10.16
			c-0.56,0.76-1.37,1.17-2.29,1.17h-0.05h-0.05c-0.91,0-1.78-0.41-2.34-1.17l-7.26-10.16v21.38c0,1.52-1.27,2.79-2.84,2.79
			c-1.52,0-2.79-1.27-2.79-2.79v-29.96c0-1.52,1.27-2.79,2.79-2.79c0.05,0,0.05,0,0.15,0c0.81,0,1.73,0.41,2.24,1.17l10.11,14.02
			l10.11-14.02c0.56-0.76,1.37-1.17,2.29-1.17c0,0,0,0,0.05,0C611.02,788.23,612.34,789.45,612.34,790.98z"/>
		<path class="st1" d="M647.48,820.94v-29.96c0-1.57,1.22-2.79,2.79-2.79h0.05c0,0,0,0,0.1,0h16.45c1.47,0,2.79,1.22,2.79,2.79
			c0,1.57-1.32,2.84-2.79,2.84h-13.76v9.29h11.83c1.52,0,2.79,1.32,2.79,2.79c0,1.57-1.27,2.84-2.79,2.84h-11.83v9.34h13.76
			c1.47,0,2.79,1.27,2.79,2.84c0,1.52-1.32,2.79-2.79,2.79h-16.45c-0.1,0-0.1-0.05-0.1-0.05l-0.05,0.05
			C648.7,823.73,647.48,822.46,647.48,820.94z"/>
	</g>
	<g>
		<path class="st1" d="M570.69,263.37c-13.85-13.85-26.58-21.73-33.43-25.97c-1.39-0.86-2.55-1.58-3.46-2.18
			c-0.86-0.57-2.05-1.13-3.44-1.65c0.08-6.84,0.21-21.51-0.05-23.22c-0.42-2.77-7.11-5.16-15.19-6.82v-23.16
			c0-6.2-11.56-12.76-22.49-12.76c-10.93,0-22.49,6.56-22.49,12.76v23.16c-8.08,1.66-14.77,4.05-15.19,6.82
			c-0.26,1.71-0.13,16.38-0.05,23.22c-1.4,0.53-2.58,1.08-3.44,1.65c-0.91,0.61-2.07,1.33-3.46,2.18
			c-6.84,4.23-19.58,12.11-33.43,25.97c-16.98,16.98-20.47,31.53-19.93,36.85c0.15,1.47,1.18,4.58,3.49,11.47
			c5.32,15.84,15.22,45.31,18.85,73.4c5.35,41.33,14.98,122.63,14.12,132.52c-0.45,5.19-2.41,11.75-3.98,17.01
			c-2,6.72-2.94,10.04-2.31,12.24c1.43,4.99,16.39,17.94,67.82,17.94c51.43,0,66.39-12.95,67.82-17.94
			c0.63-2.2-0.31-5.52-2.31-12.24c-1.57-5.27-3.52-11.82-3.98-17.01c-0.86-9.9,8.77-91.2,14.12-132.52
			c3.64-28.09,13.54-57.56,18.85-73.4c2.31-6.89,3.35-10.01,3.49-11.47C591.15,294.9,587.67,280.35,570.69,263.37z M475.61,180.37
			c0.17-1.77,7.47-7.31,17.02-7.31c9.54,0,16.85,5.54,17.02,7.29v22.17c-6.11-0.96-12.4-1.51-17.02-1.51
			c-4.62,0-10.9,0.55-17.02,1.51V180.37z M460.3,212.07c3.52-1.75,18.04-5.57,32.32-5.57c14.27,0,28.8,3.82,32.32,5.57
			c0.08,2.91,0.05,11.4-0.04,19.84c-9.63-2.43-23.6-3.99-32.28-3.99c-8.68,0-22.66,1.56-32.28,3.99
			C460.26,223.45,460.22,214.95,460.3,212.07z M585.18,299.67c-0.11,0.96-1.63,5.48-3.24,10.28c-1.16,3.45-2.54,7.57-4.02,12.16
			c-8.82,24.08-22.19,63.83-29.66,102.03c-10.97,56.09-16.49,90.89-15.98,100.62c0.2,3.9,0.97,9.41,1.63,14.27
			c0.67,4.88,1.51,10.95,1.25,11.93c-0.56,0.94-4.74,3.86-8.91,5.96c-8.57,1.43-19.56,2.41-33.64,2.41
			c-14.08,0-25.06-0.98-33.64-2.41c-4.17-2.1-8.34-4.99-8.87-5.87c-0.3-1.07,0.54-7.15,1.21-12.03c0.67-4.86,1.43-10.37,1.64-14.27
			c0.51-9.74-5.01-44.53-15.98-100.62c-7.47-38.19-20.84-77.95-29.66-102.03c-1.48-4.58-2.86-8.71-4.02-12.16
			c-1.61-4.79-3.13-9.32-3.24-10.28c-0.36-3.56,2.25-16.33,18.36-32.44c13.4-13.4,25.78-21.06,32.44-25.18
			c1.45-0.9,2.67-1.65,3.61-2.28c4.47-2.98,24.79-6.38,38.14-6.38c13.35,0,33.67,3.4,38.14,6.38c0.95,0.63,2.17,1.39,3.61,2.28
			c6.65,4.12,19.04,11.78,32.44,25.18C582.93,283.34,585.53,296.11,585.18,299.67z"/>
		<path class="st0" d="M499.69,187.46c0-3.9-3.17-7.07-7.07-7.07c-3.9,0-7.07,3.17-7.07,7.07c0,3.9,3.17,7.07,7.07,7.07
			C496.52,194.53,499.69,191.36,499.69,187.46z M489.2,187.46c0-1.88,1.53-3.42,3.42-3.42c1.89,0,3.42,1.53,3.42,3.42
			s-1.53,3.42-3.42,3.42C490.74,190.88,489.2,189.35,489.2,187.46z"/>
		<path class="st0" d="M538.95,265.31c-13.93-9.79-29.01-14.55-46.1-14.55s-32.17,4.76-46.1,14.55
			c-10.56,7.42-30.48,24.4-30.27,35.53c0.03,1.63,1.19,8.65,2.39,12.04c1.38,3.91,14.11,37.4,14.92,39.68
			c0.12,0.34,12.18,34.52,16.49,66.92c4.29,32.28,15.47,98.95,17.13,100.8c3.9,4.33,11.51,6.18,25.44,6.18s21.55-1.85,25.44-6.18
			c2.12-2.36,3.55-14.57,6.81-46.32c2.45-23.81,5.49-53.45,9.57-76.64c5.21-29.6,13.64-50.54,18.68-63.05
			c3.49-8.66,15.84-31.91,15.87-33.43C569.43,289.71,549.51,272.73,538.95,265.31z M533.36,331.28c0.26-0.4,3.26-1.18,5.4-1.18
			c1.46,0,4.91,1.44,4.65,1.84c-0.25,0.38-24.71,39.21-32.65,173.15c-0.03,0.46-2.57,1.7-5.3,1.7c-0.02,0-5.06-1.04-5.03-1.51
			C508.41,370.71,533.11,331.66,533.36,331.28z"/>
	</g>
</g>
</svg>
