<?xml version="1.0" encoding="utf-8"?>
<!-- Generator: Adobe Illustrator 25.1.0, SVG Export Plug-In . SVG Version: 6.00 Build 0)  -->
<svg version="1.1" id="Layer_1" xmlns="http://www.w3.org/2000/svg" xmlns:xlink="http://www.w3.org/1999/xlink" x="0px" y="0px"
	 viewBox="0 0 1000 1000" style="enable-background:new 0 0 1000 1000;" xml:space="preserve">
<style type="text/css">
	.st0{fill:#130D2B;}
	.st1{fill:#F52920;}
</style>
<g>
	<path class="st0" d="M623.45,337.38c-21.9-21.9-42.04-34.37-52.86-41.06c-2.19-1.36-4.04-2.5-5.47-3.45
		c-1.36-0.91-3.24-1.78-5.44-2.61c0.12-10.82,0.33-34.02-0.08-36.73c-0.66-4.38-11.24-8.15-24.03-10.79v-36.63
		c0-9.81-18.28-20.19-35.56-20.19c-17.28,0-35.56,10.38-35.56,20.19v36.63c-12.78,2.63-23.36,6.4-24.03,10.79
		c-0.41,2.71-0.2,25.91-0.08,36.73c-2.21,0.83-4.08,1.7-5.44,2.61c-1.44,0.96-3.28,2.1-5.47,3.45
		c-10.82,6.7-30.96,19.16-52.86,41.06c-26.86,26.86-32.36,49.86-31.52,58.28c0.23,2.32,1.86,7.24,5.52,18.14
		c8.41,25.04,24.07,71.65,29.81,116.07c8.46,65.35,23.69,193.92,22.33,209.57c-0.71,8.21-3.81,18.57-6.29,26.9
		c-3.17,10.62-4.65,15.88-3.65,19.36c2.25,7.89,25.92,28.37,107.25,28.37c81.33,0,104.99-20.48,107.25-28.37
		c0.99-3.47-0.49-8.74-3.65-19.36c-2.48-8.33-5.57-18.69-6.29-26.9c-1.36-15.65,13.87-144.22,22.33-209.57
		c5.75-44.42,21.4-91.03,29.82-116.07c3.66-10.9,5.29-15.82,5.52-18.14C655.81,387.25,650.31,364.24,623.45,337.38z M473.09,206.13
		c0.27-2.79,11.82-11.55,26.91-11.55c15.09,0,26.65,8.76,26.91,11.53v35.06c-9.67-1.52-19.61-2.38-26.91-2.38
		c-7.3,0-17.24,0.86-26.91,2.38V206.13z M448.89,256.26c5.56-2.77,28.53-8.81,51.11-8.81c22.57,0,45.54,6.04,51.11,8.81
		c0.13,4.61,0.08,18.03-0.06,31.38c-15.22-3.84-37.33-6.31-51.05-6.31c-13.72,0-35.83,2.47-51.05,6.31
		C448.81,274.26,448.76,260.82,448.89,256.26z M646.37,394.8c-0.17,1.52-2.57,8.67-5.12,16.25c-1.83,5.46-4.02,11.98-6.36,19.22
		c-13.95,38.07-35.09,100.95-46.9,161.35c-17.34,88.71-26.08,143.73-25.27,159.13c0.32,6.17,1.53,14.87,2.59,22.56
		c1.06,7.72,2.39,17.32,1.98,18.87c-0.88,1.49-7.49,6.1-14.09,9.43c-13.56,2.27-30.93,3.81-53.19,3.81
		c-22.27,0-39.64-1.55-53.19-3.81c-6.6-3.31-13.19-7.89-14.03-9.29c-0.48-1.7,0.85-11.3,1.91-19.02c1.06-7.69,2.26-16.39,2.59-22.56
		c0.81-15.4-7.93-70.42-25.27-159.13c-11.81-60.4-32.95-123.27-46.9-161.34c-2.34-7.25-4.52-13.77-6.36-19.23
		c-2.55-7.58-4.95-14.74-5.12-16.25c-0.56-5.63,3.56-25.82,29.03-51.3c21.19-21.19,40.78-33.31,51.3-39.82
		c2.29-1.42,4.22-2.61,5.72-3.61c7.07-4.71,39.2-10.09,60.32-10.09c21.12,0,53.25,5.37,60.32,10.09c1.5,1,3.42,2.19,5.72,3.61
		c10.52,6.51,30.1,18.63,51.3,39.82C642.81,368.98,646.93,389.17,646.37,394.8z"/>
	<path class="st1" d="M511.17,217.35c0-6.16-5.01-11.17-11.17-11.17c-6.16,0-11.17,5.01-11.17,11.17c0,6.16,5.01,11.17,11.17,11.17
		C506.16,228.52,511.17,223.51,511.17,217.35z M494.59,217.35c0-2.98,2.43-5.41,5.41-5.41c2.98,0,5.41,2.43,5.41,5.41
		s-2.42,5.41-5.41,5.41C497.02,222.76,494.59,220.33,494.59,217.35z"/>
	<path class="st1" d="M573.26,340.46c-22.03-15.49-45.88-23.01-72.9-23.01c-27.02,0-50.87,7.53-72.9,23.01
		c-16.7,11.74-48.2,38.59-47.87,56.19c0.05,2.57,1.89,13.68,3.78,19.05c2.18,6.19,22.31,59.14,23.59,62.75
		c0.19,0.54,19.27,54.6,26.07,105.83c6.78,51.05,24.46,156.47,27.09,159.4c6.17,6.85,18.2,9.77,40.24,9.77s34.07-2.92,40.24-9.77
		c3.36-3.73,5.62-23.05,10.77-73.25c3.87-37.66,8.68-84.53,15.13-121.21c8.23-46.8,21.57-79.92,29.54-99.71
		c5.51-13.69,25.04-50.46,25.09-52.87C621.46,379.04,589.96,352.19,573.26,340.46z M564.43,444.78c0.41-0.63,5.16-1.87,8.54-1.87
		c2.32,0,7.76,2.28,7.35,2.91c-0.39,0.6-39.08,62-51.64,273.82c-0.04,0.73-4.06,2.69-8.38,2.69c-0.03,0-8-1.64-7.95-2.39
		C524.96,507.14,564.03,445.38,564.43,444.78z"/>
</g>
</svg>
